# xmcd
#
# Track frame offsets: 
#        182
#        49305
#        82440
#
# Disc length: 1336 seconds
#
# Revision: 13
# Processed by: cddbd v1.5.2PL0 Copyright (c) Steve Scherf et al.
# Submitted via: ExactAudioCopy v0.99pb4
#
DISCID=27053603
DTITLE=Jam and Spoon's Hands On Yello - You Gotta Say Yes To Another Exc
DTITLE=ess- Great Mission
DYEAR=1995
DGENRE=Hard Trance
TTITLE0=You Gotta Say Yes To Another Excess- Great Mission (Uff Die 12
TTITLE0=Mix)
TTITLE1=You Gotta Say Yes To Another Excess- Great Mission (Haus Mix)
TTITLE2=You Gotta Say Yes To Another Excess- Great Mission
EXTD=Cat No: 851811-2 YEAR: 1995
EXTT0=
EXTT1=
EXTT2=
PLAYORDER=
